<?xml version="1.0" encoding="utf-8"?>
<!-- Generator: Adobe Illustrator 26.0.2, SVG Export Plug-In . SVG Version: 6.00 Build 0)  -->
<svg width="126" height="22" version="1.1" id="图层_1" xmlns="http://www.w3.org/2000/svg" xmlns:xlink="http://www.w3.org/1999/xlink" x="0px" y="0px"
	 viewBox="0 0 240 43" style="enable-background:new 0 0 240 43;" xml:space="preserve">
<style type="text/css">
	.st0{fill:#ffffff;}
</style>
<g>
	<path class="st0" d="M239.8,7c0-0.3-0.3-0.6-0.6-0.6h-35.7c-0.3,0-0.6,0.3-0.6,0.6v34.8c0,0.3,0.3,0.6,0.6,0.6h29.6
		c3.7,0,6.6-3,6.6-6.6L239.8,7z M233.1,38.8h-26.7V10h29.8l0,25.8C236.2,37.5,234.8,38.8,233.1,38.8z"/>
	<path class="st0" d="M197.3,38.9c-2.5-0.5-10-3.5-13.8-6.4h13.7c0.3,0,0.6-0.3,0.6-0.6v-2.4c0-0.3-0.3-0.6-0.6-0.6h-15.3v-3.4h15.3
		c0.3,0,0.6-0.3,0.6-0.6v-2.4c0-0.3-0.3-0.6-0.6-0.6h-15.3v-3.3h13.9c0.3,0,0.6-0.3,0.6-0.6v-2.4c0-0.3-0.3-0.6-0.6-0.6h-13.9v-3.1
		h15h0.3c0.3,0,0.6-0.3,0.6-0.6V9.2c0-0.3-0.3-0.6-0.6-0.6H197H192l1-2.1c0.1-0.2,0.1-0.4,0-0.6c-0.1-0.2-0.3-0.3-0.5-0.3h-2.7
		c-0.2,0-0.4,0.1-0.5,0.3l-1.3,2.6h-17L169.8,6c-0.1-0.2-0.3-0.3-0.5-0.3h-2.7c-0.2,0-0.4,0.1-0.5,0.3c-0.1,0.2-0.1,0.4,0,0.6l1,2.1
		h-4.6c-0.3,0-0.6,0.3-0.6,0.6v2.4c0,0.3,0.3,0.6,0.6,0.6h15.3v3.1h-13.9c-0.3,0-0.6,0.3-0.6,0.6v2.4c0,0.3,0.3,0.6,0.6,0.6h13.9V22
		h-15.3c-0.3,0-0.6,0.3-0.6,0.6V25c0,0.3,0.3,0.6,0.6,0.6h15.3V29h-15.3c-0.3,0-0.6,0.3-0.6,0.6V32c0,0.3,0.3,0.6,0.6,0.6h13.5
		c-3.4,2.9-10.5,5.7-13.6,6.4c-0.3,0.1-0.4,0.3-0.4,0.6v2.4c0,0.2,0.1,0.3,0.2,0.4c0.1,0.1,0.2,0.1,0.4,0.1c0,0,0.1,0,0.1,0
		c3.3-0.7,13.1-4,17-8.7c1.5,1.6,4,3.3,7.3,5c3.6,1.8,7.9,3.4,10.1,3.7c0,0,0.1,0,0.1,0c0.1,0,0.3,0,0.4-0.1
		c0.1-0.1,0.2-0.3,0.2-0.4v-2.4C197.8,39.2,197.6,39,197.3,38.9z"/>
	<path class="st0" d="M231.3,33.7c-2.7-0.5-5.6-0.9-8.5-1.2c-2.7-0.3-5.4-0.5-7.9-0.7c-1.3-0.1-2.3-0.1-3-0.1c0,0,0,0,0,0
		c-0.1,0-0.3,0.1-0.4,0.2c-0.1,0.1-0.2,0.3-0.2,0.4v2.4c0,0.3,0.2,0.6,0.6,0.6c2.2,0.1,10,0.4,19.2,2c0,0,0.1,0,0.1,0
		c0.1,0,0.3,0,0.4-0.1c0.1-0.1,0.2-0.3,0.2-0.4v-2.4C231.8,34,231.6,33.8,231.3,33.7z"/>
	<path class="st0" d="M225.9,30.8c0.4,0.1,0.8,0.2,1.2,0.2l0.2,0c0.2,0,0.3,0.1,0.5,0.1c0,0,0.1,0,0.1,0c0.1,0,0.3,0,0.4-0.1
		c0.1-0.1,0.2-0.3,0.2-0.4v-2.4c0-0.3-0.2-0.5-0.5-0.6c-6.4-1.3-11.7-1.6-13.1-1.6c0,0,0,0,0,0c-0.1,0-0.3,0.1-0.4,0.2
		c-0.1,0.1-0.2,0.3-0.2,0.4v2.4c0,0.3,0.2,0.6,0.6,0.6C216,29.5,220.4,29.7,225.9,30.8z"/>
	<path class="st0" d="M234.4,23.8c-0.6-0.1-1.2-0.3-1.8-0.4c-2.1-0.6-4.4-1.3-6.6-2.1c-0.3-0.1-0.6-0.2-0.8-0.3
		c0.8-0.4,1.6-0.9,2.5-1.4c2.3-1.3,4.1-2.5,5.2-3.3c0.2-0.1,0.2-0.3,0.2-0.5v-3.1c0-0.3-0.3-0.6-0.6-0.6h-5.1h-10.1
		c0.1-0.1,0.2-0.2,0.2-0.4c0.1-0.2,0.1-0.4,0-0.6s-0.3-0.3-0.5-0.3h-2.9c-0.2,0-0.4,0.1-0.5,0.2c-0.6,0.8-1.2,1.6-1.8,2.3
		c-0.9,1-1.9,1.9-2.8,2.6c-0.2,0.1-0.2,0.3-0.2,0.5v2.8c0,0.2,0.1,0.4,0.3,0.5c0.1,0.1,0.2,0.1,0.3,0.1c0.1,0,0.2,0,0.3-0.1
		c1-0.6,2-1.3,3-2.2c0.7-0.6,1.3-1.3,2-2c0.1,0,0.1,0,0.2,0h12.4c-0.1,0-0.1,0.1-0.2,0.1c-2,1.2-4.1,2.4-6.2,3.4
		c-2.9-1.3-4.6-2.2-4.6-2.3c-0.1,0-0.2-0.1-0.3-0.1c-0.2,0-0.4,0.1-0.5,0.3l-1.2,2.1c-0.1,0.1-0.1,0.3-0.1,0.4
		c0,0.1,0.1,0.3,0.3,0.3c0.1,0.1,0.8,0.4,2,1c-0.2,0.1-0.4,0.2-0.7,0.2c-1.2,0.4-2.5,0.8-3.7,1.2c-1.4,0.4-2.6,0.6-3.9,0.8
		c-0.3,0-0.5,0.3-0.5,0.6v2.4c0,0.2,0.1,0.3,0.2,0.4c0.1,0.1,0.2,0.1,0.4,0.1c0,0,0.1,0,0.1,0c1.3-0.2,2.6-0.5,4-0.8
		c0.9-0.2,1.7-0.5,2.6-0.7c0.5-0.2,0.9-0.3,1.3-0.4c1.5-0.5,3-1.1,4.5-1.8c1.5,0.6,3,1.2,4.6,1.8c0.7,0.3,1.5,0.5,2.2,0.8
		c1.6,0.5,3.1,1,4.6,1.3c0.6,0.2,1.2,0.3,1.8,0.4c0,0,0.1,0,0.1,0c0.1,0,0.3,0,0.4-0.1c0.1-0.1,0.2-0.3,0.2-0.4v-2.5
		C234.8,24.1,234.6,23.9,234.4,23.8z"/>
	<path class="st0" d="M97.4,8.2h-4.8c-0.5,0-0.9,0.4-0.9,0.8v32.2c0,0.5,0.4,0.8,0.9,0.8h4.8c0.5,0,0.9-0.4,0.9-0.8V9
		C98.2,8.6,97.9,8.2,97.4,8.2z"/>
	<path class="st0" d="M77.2,8.5c-2.1-0.9-4.3-1.4-6.6-1.4c-5.2,0-9.9,1.9-13.3,5.2c-3.4,3.3-5.2,7.8-5.2,12.6
		c0,4.7,1.8,9.2,5.2,12.6c3.4,3.4,7.8,5.2,12.6,5.2c3.8,0,7.2-1.1,10.2-3.2c2.2-1.5,4.1-3.6,5.5-6.1c0.1-0.1,0.1-0.3,0.1-0.5
		c0-0.5-0.4-0.9-0.9-0.9h0H79c-0.2,0-0.5,0.1-0.6,0.3c-2.3,2.5-5.1,3.7-8.4,3.7c-6.2,0-11.2-5.1-11.2-11.3c0-3.1,1.2-5.9,3.3-8
		c2.2-2.2,5.3-3.3,8.7-3.3c2.7,0,5.3,1.2,7.4,3.2c1.3,1.3,2.3,3,2.8,4.7c-4.9,0-12.8,0-17.2,0c-0.4,0-0.7,0.2-0.8,0.5
		c-0.3,0.9-0.5,1.8-0.5,2.7c0,0.9,0.2,1.8,0.5,2.7c0.1,0.3,0.4,0.5,0.8,0.5h0c0.6,0,23.4,0,23.4,0c0.5,0,0.9-0.4,0.9-0.9v-2.4
		c0-4.7-1.8-9.1-5.1-12.5C81.1,10.7,79.3,9.4,77.2,8.5z"/>
	<path class="st0" d="M34.5,7.8c-4.1,0-7.8,1.9-10.3,4.8C21.7,9.7,18,7.8,13.8,7.8c-7.5,0-13.6,6.1-13.6,13.6v19.9
		c0,0.5,0.4,0.8,0.9,0.8h4.8c0.5,0,0.9-0.4,0.9-0.8V21.4c0-3.9,3.2-7.2,7.1-7.2c3.7,0,7.1,3.3,7.1,6.7c0,3.8,0,20.4,0,20.4
		c0,0.5,0.4,0.8,0.9,0.8h0h4.8h0c0.5,0,0.9-0.4,0.9-0.8c0,0,0-20.2,0-20.4c0-3.4,3.3-6.6,7.1-6.6c3.9,0,7.1,3.2,7.1,7.2v19.9
		c0,0.5,0.4,0.8,0.9,0.8h4.8c0.5,0,0.9-0.4,0.9-0.8V21.4C48.1,13.9,42,7.8,34.5,7.8z"/>
	<path class="st0" d="M154.6,8.2h-4.7c-0.5,0-0.8,0.4-0.8,0.8v18.8c0,4.7-3.8,8.5-8.4,8.5s-8.4-3.8-8.4-8.5V9c0-0.5-0.4-0.8-0.8-0.8
		h-4.7c-0.5,0-0.8,0.4-0.8,0.8v18.8c0,8.2,6.7,14.9,14.8,14.9s14.8-6.7,14.8-14.9V9C155.5,8.6,155.1,8.2,154.6,8.2z"/>
	<path class="st0" d="M121.6,35.7h-3.2c-2,0-3.6-1.6-3.6-3.6V14.6h6.8c0.5,0,0.9-0.4,0.9-0.8V9c0-0.5-0.4-0.8-0.9-0.8h-6.8v-7
		c0-0.5-0.4-0.8-0.9-0.8h-4.8c-0.5,0-0.9,0.4-0.9,0.8v7h-5.1c-0.5,0-0.9,0.4-0.9,0.8v4.7c0,0.5,0.4,0.8,0.9,0.8h5.1v17.4
		c0,5.5,4.5,10.1,10.1,10.1h3.2c0.5,0,0.9-0.4,0.9-0.8v-4.7C122.5,36.1,122.1,35.7,121.6,35.7z"/>
</g>
</svg>
